<svg width="160" height="40" viewBox="0 0 160 40" xmlns="http://www.w3.org/2000/svg" xmlns:xlink="http://www.w3.org/1999/xlink"><svg width="40" height="40" viewBox="0 0 40 40" id="n1"><defs><style>.acls-1{fill:#fff;fill-rule:evenodd}.acls-2{fill:#ff4e50;stroke:#fff;stroke-linejoin:round;stroke-width:4px}</style></defs><circle class="acls-2" cx="20" cy="20" r="16"/><path class="acls-1" d="M26.663 16h-5.676l2.239-2.688a.588.588 0 0 0 .1.02.667.667 0 1 0-.667-.667.658.658 0 0 0 .046.226L20.12 16h-.244l-2.588-3.109a.664.664 0 1 0-.622.441.57.57 0 0 0 .1-.02L19.008 16h-5.676A1.334 1.334 0 0 0 12 17.334v9.338A1.333 1.333 0 0 0 13.332 28h13.331A1.333 1.333 0 0 0 28 26.672v-9.338A1.334 1.334 0 0 0 26.663 16zM24 25.337a1.334 1.334 0 0 1-1.333 1.334h-8a1.334 1.334 0 0 1-1.333-1.334v-6.669a1.334 1.334 0 0 1 1.333-1.334h8A1.333 1.333 0 0 1 24 18.668v6.669zm1.964-5.961a.952.952 0 1 1 .951-.953.953.953 0 0 1-.954.954z"/></svg><svg width="40" height="40" viewBox="0 0 40 40" id="n2" x="40"><defs><style>.bcls-1{fill:#fff;fill-rule:evenodd}.bcls-2{fill:#1cd7ad;stroke:#fff;stroke-linejoin:round;stroke-width:4px}</style></defs><circle class="bcls-2" cx="20" cy="20" r="16"/><path class="bcls-1" d="M25.3 23.3c-.6-.043-1.29-.076-2.033-.1a6.854 6.854 0 0 0 1.671-2.25 1.58 1.58 0 0 0 1.964.239 1.633 1.633 0 0 0 .536-2.23 1.6 1.6 0 0 0-1.758-.723c.029-.289.048-.582.048-.881a.562.562 0 0 0-.559-.565h-10.34a.562.562 0 0 0-.559.565 7.743 7.743 0 0 0 2.458 5.845c-.742.025-1.429.059-2.03.1-2.091.148-2.7.289-2.7.936s.608.788 2.7.936c1.418.1 3.3.155 5.3.155s3.883-.055 5.3-.155c2.091-.148 2.7-.289 2.7-.936s-.606-.787-2.698-.936zm.268-4.3s.009 0 .013-.005a.93.93 0 0 1 1.285.316.947.947 0 0 1 .11.715.936.936 0 0 1-.422.584.928.928 0 0 1-1.284-.315.3.3 0 0 0-.04-.043A8.387 8.387 0 0 0 25.568 19zm-10.16-1.08h9.183c-.22 3.044-2.191 5.435-4.591 5.435s-4.372-2.391-4.592-5.435zm3.555-2.284h.038a.453.453 0 0 0 .422-.607 3.208 3.208 0 0 1 .123-2.3 2.938 2.938 0 0 0 .572-2.369 1.076 1.076 0 0 0-.665-.675.452.452 0 0 0-.274.862.221.221 0 0 1 .1.126 2.064 2.064 0 0 1-.484 1.564l-.022.037a7.018 7.018 0 0 1-.146.234c-.681 1.056-.885 1.887-.607 2.47a1.207 1.207 0 0 0 .943.657zm2.384.084h.031a.425.425 0 0 0 .4-.57 1.818 1.818 0 0 1 .063-1.286 1.907 1.907 0 0 0 .363-1.583.809.809 0 0 0-.5-.505.425.425 0 0 0-.49.612.419.419 0 0 0 .249.2.323.323 0 0 1-.046-.016 1.167 1.167 0 0 1-.281.827l-.026.043-.078.125a1.75 1.75 0 0 0-.382 1.661.883.883 0 0 0 .698.491z"/></svg><svg width="40" height="40" viewBox="0 0 40 40" id="n3" x="80"><defs><style>.ccls-1{fill:#fff;fill-rule:evenodd}.ccls-2{fill:#ffa507;stroke:#fff;stroke-linejoin:round;stroke-width:4px}</style></defs><circle class="ccls-2" cx="20" cy="20" r="16"/><path class="ccls-1" d="M25.761 25.02L22.7 16.729v-2.44a1.474 1.474 0 0 0 .993-1.389v-.4a1.476 1.476 0 0 0-1.478-1.471h-4.37a1.476 1.476 0 0 0-1.478 1.471v.4a1.473 1.473 0 0 0 .994 1.388v2.44L14.3 25a1.471 1.471 0 0 0 1.369 2.026h8.713a1.476 1.476 0 0 0 1.226-.65 1.453 1.453 0 0 0 .153-1.356zm-8.1-1.88a.5.5 0 1 1 .5.5.5.5 0 0 1-.502-.5zm3.246.437a.866.866 0 1 1-.87.865.868.868 0 0 1 .869-.865zm-.741-1.9a.627.627 0 1 1 .628.624.627.627 0 0 1-.629-.622zM18.338 16.9v-3.502h-.493a.5.5 0 0 1-.5-.5V12.5a.5.5 0 0 1 .5-.5h4.37a.5.5 0 0 1 .5.5v.4a.5.5 0 0 1-.5.5h-.493v3.5l.857 2.321c-.011.011-.022.018-.033.03-.638.66-5.3.736-5.3.736H17.2zm1.352 1.874a.678.678 0 1 0-.681-.678.68.68 0 0 0 .681.68z"/></svg><svg width="40" height="40" viewBox="0 0 40 40" id="n4" x="120"><defs><style>.dcls-1{fill:#fff;fill-rule:evenodd}.dcls-2{fill:#4e73db;stroke:#fff;stroke-linejoin:round;stroke-width:4px}</style></defs><circle class="dcls-2" cx="20.953" cy="20.969" r="16.016"/><path class="dcls-1" d="M26.936 13.533a.163.163 0 0 0-.174-.017l-15.678 7.95a.16.16 0 0 0-.088.156.162.162 0 0 0 .112.14l4.962 1.565a.161.161 0 0 0 .157-.034l7.547-6.4-5.8 6.8a.159.159 0 0 0 .076.256l5.824 1.759A.16.16 0 0 0 24 25.7a.162.162 0 0 0 .077-.1l2.911-11.9a.161.161 0 0 0-.052-.167zm-7.179 12.161l-1.609-.494a.161.161 0 0 0-.209.153v3.012a.161.161 0 0 0 .117.154.176.176 0 0 0 .045.006.164.164 0 0 0 .137-.075l1.609-2.522a.156.156 0 0 0 .015-.14.161.161 0 0 0-.105-.094z"/></svg></svg>